screens;
 
http://baypic.net/img-5175849151191.html 
 
http://baypic.net/img-5175849478e9d.html 
 
http://baypic.net/img-51758497a2041.html 


Format                                   : MPEG-4
Format profile                           : Base Media / Version 2
Codec ID                                 : mp42
File size                                : 1.54 GiB
Duration                                 : 28mn 35s
Overall bit rate mode                    : Variable
Overall bit rate                         : 7 706 Kbps
Encoded date                             : UTC 2013-04-18 16:44:39
Tagged date                              : UTC 2013-04-18 16:44:39
?TIM                                     : 00:00:00:00
?TSC                                     : 24000
?TSZ                                     : 1001

Video
ID                                       : 1
Format                                   : AVC
Format/Info                              : Advanced Video Codec
Format profile                           : High@L4.0
Format settings, CABAC                   : Yes
Format settings, ReFrames                : 3 frames
Format settings, GOP                     : M=3, N=33
Codec ID                                 : avc1
Codec ID/Info                            : Advanced Video Coding
Duration                                 : 28mn 35s
Bit rate mode                            : Constant
Bit rate                                 : 7 512 Kbps
Nominal bit rate                         : 8 500 Kbps
Width                                    : 1 920 pixels
Height                                   : 1 080 pixels
Display aspect ratio                     : 16:9
Frame rate mode                          : Constant
Frame rate                               : 23.976 fps
Standard                                 : NTSC
Color space                              : YUV
Chroma subsampling                       : 4:2:0
Bit depth                                : 8 bits
Scan type                                : Progressive
Bits/(Pixel*Frame)                       : 0.151
Stream size                              : 1.50 GiB (97%)
Language                                 : English
Encoded date                             : UTC 2013-04-18 16:44:39
Tagged date                              : UTC 2013-04-18 16:44:39
Color primaries                          : BT.709-5, BT.1361, IEC 61966-2-4, SMPTE RP177
Transfer characteristics                 : BT.709-5, BT.1361
Matrix coefficients                      : BT.709-5, BT.1361, IEC 61966-2-4 709, SMPTE RP177

Audio
ID                                       : 2
Format                                   : AAC
Format/Info                              : Advanced Audio Codec
Format profile                           : LC
Codec ID                                 : 40
Duration                                 : 28mn 35s
Source duration                          : 28mn 35s
Bit rate mode                            : Variable
Bit rate                                 : 192 Kbps
Maximum bit rate                         : 291 Kbps
Channel(s)                               : 2 channels
Channel positions                        : Front: L R
Sampling rate                            : 48.0 KHz
Compression mode                         : Lossy
Stream size                              : 38.7 MiB (2%)
Source stream size                       : 38.7 MiB (2%)
Language                                 : English
Encoded date                             : UTC 2013-04-18 16:44:39
Tagged date                              : UTC 2013-04-18 16:44:39